<mxfile host="app.diagrams.net" modified="2023-08-20T05:14:14.195Z" agent="Mozilla/5.0 (Windows NT 10.0; Win64; x64; rv:109.0) Gecko/20100101 Firefox/115.0" etag="DdVI5J0szNwocDaH-CIE" version="21.6.8" type="github" pages="2">
  <diagram id="R2lEEEUBdFMjLlhIrx00" name="ERD">
    <mxGraphModel dx="2693" dy="1799" grid="1" gridSize="10" guides="1" tooltips="1" connect="1" arrows="1" fold="1" page="1" pageScale="1" pageWidth="850" pageHeight="1100" math="0" shadow="0" extFonts="Permanent Marker^https://fonts.googleapis.com/css?family=Permanent+Marker">
      <root>
        <mxCell id="0" />
        <mxCell id="1" parent="0" />
        <mxCell id="4zPybURJNScIZEpRafUK-2" value="Pesanan" style="rounded=0;whiteSpace=wrap;html=1;" parent="1" vertex="1">
          <mxGeometry x="545" y="160" width="120" height="60" as="geometry" />
        </mxCell>
        <mxCell id="4zPybURJNScIZEpRafUK-3" value="Pelanggan " style="rounded=0;whiteSpace=wrap;html=1;" parent="1" vertex="1">
          <mxGeometry x="85" y="335" width="120" height="60" as="geometry" />
        </mxCell>
        <mxCell id="4zPybURJNScIZEpRafUK-10" value="Email" style="ellipse;whiteSpace=wrap;html=1;" parent="1" vertex="1">
          <mxGeometry x="-62.5" y="400" width="80" height="40" as="geometry" />
        </mxCell>
        <mxCell id="4zPybURJNScIZEpRafUK-16" value="" style="endArrow=none;html=1;rounded=0;entryX=0;entryY=0.5;entryDx=0;entryDy=0;exitX=1;exitY=0.5;exitDx=0;exitDy=0;" parent="1" source="4zPybURJNScIZEpRafUK-10" target="4zPybURJNScIZEpRafUK-3" edge="1">
          <mxGeometry width="50" height="50" relative="1" as="geometry">
            <mxPoint x="34.5" y="175" as="sourcePoint" />
            <mxPoint x="97.5" y="210" as="targetPoint" />
          </mxGeometry>
        </mxCell>
        <mxCell id="4zPybURJNScIZEpRafUK-18" value="kode_pos" style="ellipse;whiteSpace=wrap;html=1;" parent="1" vertex="1">
          <mxGeometry x="97.5" y="500" width="70" height="40" as="geometry" />
        </mxCell>
        <mxCell id="4zPybURJNScIZEpRafUK-19" value="Telepon" style="ellipse;whiteSpace=wrap;html=1;" parent="1" vertex="1">
          <mxGeometry x="-17.5" y="450" width="70" height="40" as="geometry" />
        </mxCell>
        <mxCell id="4zPybURJNScIZEpRafUK-20" value="Alamat" style="ellipse;whiteSpace=wrap;html=1;" parent="1" vertex="1">
          <mxGeometry x="37.5" y="500" width="60" height="40" as="geometry" />
        </mxCell>
        <mxCell id="4zPybURJNScIZEpRafUK-21" value="Nama_pelanggan" style="ellipse;whiteSpace=wrap;html=1;" parent="1" vertex="1">
          <mxGeometry x="-87.5" y="340" width="100" height="50" as="geometry" />
        </mxCell>
        <mxCell id="4zPybURJNScIZEpRafUK-22" value="" style="endArrow=none;html=1;rounded=0;exitX=0.5;exitY=0;exitDx=0;exitDy=0;entryX=0.5;entryY=1;entryDx=0;entryDy=0;" parent="1" source="4zPybURJNScIZEpRafUK-18" target="4zPybURJNScIZEpRafUK-3" edge="1">
          <mxGeometry width="50" height="50" relative="1" as="geometry">
            <mxPoint x="27.5" y="390" as="sourcePoint" />
            <mxPoint x="147.5" y="420" as="targetPoint" />
          </mxGeometry>
        </mxCell>
        <mxCell id="4zPybURJNScIZEpRafUK-24" value="" style="endArrow=none;html=1;rounded=0;entryX=0;entryY=0.5;entryDx=0;entryDy=0;exitX=1;exitY=0.5;exitDx=0;exitDy=0;" parent="1" source="4zPybURJNScIZEpRafUK-21" target="4zPybURJNScIZEpRafUK-3" edge="1">
          <mxGeometry width="50" height="50" relative="1" as="geometry">
            <mxPoint x="97.5" y="314" as="sourcePoint" />
            <mxPoint x="127.5" y="360" as="targetPoint" />
          </mxGeometry>
        </mxCell>
        <mxCell id="4zPybURJNScIZEpRafUK-25" value="" style="endArrow=none;html=1;rounded=0;entryX=0.5;entryY=1;entryDx=0;entryDy=0;exitX=1;exitY=0;exitDx=0;exitDy=0;" parent="1" source="4zPybURJNScIZEpRafUK-19" target="4zPybURJNScIZEpRafUK-3" edge="1">
          <mxGeometry width="50" height="50" relative="1" as="geometry">
            <mxPoint x="37.5" y="335" as="sourcePoint" />
            <mxPoint x="97.5" y="375" as="targetPoint" />
          </mxGeometry>
        </mxCell>
        <mxCell id="4zPybURJNScIZEpRafUK-26" value="" style="endArrow=none;html=1;rounded=0;entryX=0.5;entryY=1;entryDx=0;entryDy=0;exitX=0.5;exitY=0;exitDx=0;exitDy=0;" parent="1" source="4zPybURJNScIZEpRafUK-20" target="4zPybURJNScIZEpRafUK-3" edge="1">
          <mxGeometry width="50" height="50" relative="1" as="geometry">
            <mxPoint x="37.5" y="436" as="sourcePoint" />
            <mxPoint x="97.5" y="420" as="targetPoint" />
          </mxGeometry>
        </mxCell>
        <mxCell id="4zPybURJNScIZEpRafUK-31" value="Total_bayar" style="ellipse;whiteSpace=wrap;html=1;" parent="1" vertex="1">
          <mxGeometry x="740" y="160" width="80" height="40" as="geometry" />
        </mxCell>
        <mxCell id="4zPybURJNScIZEpRafUK-32" value="Tanggal_pesanan" style="ellipse;whiteSpace=wrap;html=1;" parent="1" vertex="1">
          <mxGeometry x="745" y="110" width="95" height="50" as="geometry" />
        </mxCell>
        <mxCell id="4zPybURJNScIZEpRafUK-34" value="Status" style="ellipse;whiteSpace=wrap;html=1;" parent="1" vertex="1">
          <mxGeometry x="725" y="210" width="80" height="40" as="geometry" />
        </mxCell>
        <mxCell id="4zPybURJNScIZEpRafUK-35" value="Id_pelanggan" style="ellipse;whiteSpace=wrap;html=1;" parent="1" vertex="1">
          <mxGeometry x="167.5" y="230" width="80" height="40" as="geometry" />
        </mxCell>
        <mxCell id="4zPybURJNScIZEpRafUK-37" value="" style="endArrow=none;html=1;rounded=0;exitX=1;exitY=0.5;exitDx=0;exitDy=0;" parent="1" source="4zPybURJNScIZEpRafUK-2" target="4zPybURJNScIZEpRafUK-32" edge="1">
          <mxGeometry width="50" height="50" relative="1" as="geometry">
            <mxPoint x="615" y="170" as="sourcePoint" />
            <mxPoint x="615" y="100" as="targetPoint" />
          </mxGeometry>
        </mxCell>
        <mxCell id="4zPybURJNScIZEpRafUK-38" value="" style="endArrow=none;html=1;rounded=0;entryX=0;entryY=0.5;entryDx=0;entryDy=0;exitX=1;exitY=0.5;exitDx=0;exitDy=0;" parent="1" source="4zPybURJNScIZEpRafUK-2" target="4zPybURJNScIZEpRafUK-31" edge="1">
          <mxGeometry width="50" height="50" relative="1" as="geometry">
            <mxPoint x="645" y="170" as="sourcePoint" />
            <mxPoint x="725" y="120" as="targetPoint" />
          </mxGeometry>
        </mxCell>
        <mxCell id="4zPybURJNScIZEpRafUK-39" value="" style="endArrow=none;html=1;rounded=0;entryX=0;entryY=0.5;entryDx=0;entryDy=0;exitX=1;exitY=0.5;exitDx=0;exitDy=0;" parent="1" source="4zPybURJNScIZEpRafUK-2" target="4zPybURJNScIZEpRafUK-34" edge="1">
          <mxGeometry width="50" height="50" relative="1" as="geometry">
            <mxPoint x="655" y="180" as="sourcePoint" />
            <mxPoint x="735" y="130" as="targetPoint" />
          </mxGeometry>
        </mxCell>
        <mxCell id="4zPybURJNScIZEpRafUK-40" value="" style="endArrow=none;html=1;rounded=0;entryX=0.5;entryY=0;entryDx=0;entryDy=0;exitX=1;exitY=1;exitDx=0;exitDy=0;" parent="1" source="tgSQndXWRAumQTSyCi7y-1" target="4zPybURJNScIZEpRafUK-35" edge="1">
          <mxGeometry width="50" height="50" relative="1" as="geometry">
            <mxPoint x="665" y="190" as="sourcePoint" />
            <mxPoint x="745" y="140" as="targetPoint" />
          </mxGeometry>
        </mxCell>
        <mxCell id="CGPKFUjXN6ENeRpTmAmZ-1" value="username" style="ellipse;whiteSpace=wrap;html=1;" parent="1" vertex="1">
          <mxGeometry x="167.5" y="490" width="70" height="40" as="geometry" />
        </mxCell>
        <mxCell id="CGPKFUjXN6ENeRpTmAmZ-2" value="" style="endArrow=none;html=1;rounded=0;exitX=0.5;exitY=0;exitDx=0;exitDy=0;entryX=0.5;entryY=1;entryDx=0;entryDy=0;" parent="1" source="CGPKFUjXN6ENeRpTmAmZ-1" target="4zPybURJNScIZEpRafUK-3" edge="1">
          <mxGeometry width="50" height="50" relative="1" as="geometry">
            <mxPoint x="162.5" y="500" as="sourcePoint" />
            <mxPoint x="157.5" y="420" as="targetPoint" />
          </mxGeometry>
        </mxCell>
        <mxCell id="CGPKFUjXN6ENeRpTmAmZ-3" value="password" style="ellipse;whiteSpace=wrap;html=1;" parent="1" vertex="1">
          <mxGeometry x="237.5" y="470" width="70" height="40" as="geometry" />
        </mxCell>
        <mxCell id="CGPKFUjXN6ENeRpTmAmZ-4" value="" style="endArrow=none;html=1;rounded=0;exitX=0;exitY=0;exitDx=0;exitDy=0;entryX=0.5;entryY=1;entryDx=0;entryDy=0;" parent="1" source="CGPKFUjXN6ENeRpTmAmZ-3" target="4zPybURJNScIZEpRafUK-3" edge="1">
          <mxGeometry width="50" height="50" relative="1" as="geometry">
            <mxPoint x="212.5" y="500" as="sourcePoint" />
            <mxPoint x="157.5" y="420" as="targetPoint" />
          </mxGeometry>
        </mxCell>
        <mxCell id="CGPKFUjXN6ENeRpTmAmZ-5" value="Produk" style="rounded=0;whiteSpace=wrap;html=1;" parent="1" vertex="1">
          <mxGeometry x="565" y="440" width="120" height="60" as="geometry" />
        </mxCell>
        <mxCell id="CGPKFUjXN6ENeRpTmAmZ-6" value="id_device" style="ellipse;whiteSpace=wrap;html=1;" parent="1" vertex="1">
          <mxGeometry x="725" y="380" width="80" height="40" as="geometry" />
        </mxCell>
        <mxCell id="CGPKFUjXN6ENeRpTmAmZ-7" value="" style="endArrow=none;html=1;rounded=0;entryX=0;entryY=1;entryDx=0;entryDy=0;exitX=1;exitY=0.5;exitDx=0;exitDy=0;" parent="1" source="CGPKFUjXN6ENeRpTmAmZ-5" target="CGPKFUjXN6ENeRpTmAmZ-6" edge="1">
          <mxGeometry width="50" height="50" relative="1" as="geometry">
            <mxPoint x="645" y="230" as="sourcePoint" />
            <mxPoint x="745" y="280" as="targetPoint" />
          </mxGeometry>
        </mxCell>
        <mxCell id="CGPKFUjXN6ENeRpTmAmZ-8" value="Nama_device" style="ellipse;whiteSpace=wrap;html=1;" parent="1" vertex="1">
          <mxGeometry x="750" y="430" width="80" height="40" as="geometry" />
        </mxCell>
        <mxCell id="CGPKFUjXN6ENeRpTmAmZ-10" value="" style="endArrow=none;html=1;rounded=0;entryX=0;entryY=0.5;entryDx=0;entryDy=0;exitX=1;exitY=0.5;exitDx=0;exitDy=0;" parent="1" source="CGPKFUjXN6ENeRpTmAmZ-5" target="CGPKFUjXN6ENeRpTmAmZ-8" edge="1">
          <mxGeometry width="50" height="50" relative="1" as="geometry">
            <mxPoint x="695" y="480" as="sourcePoint" />
            <mxPoint x="747" y="424" as="targetPoint" />
          </mxGeometry>
        </mxCell>
        <mxCell id="CGPKFUjXN6ENeRpTmAmZ-11" value="Gambar" style="ellipse;whiteSpace=wrap;html=1;" parent="1" vertex="1">
          <mxGeometry x="755" y="480" width="80" height="40" as="geometry" />
        </mxCell>
        <mxCell id="CGPKFUjXN6ENeRpTmAmZ-13" value="" style="endArrow=none;html=1;rounded=0;entryX=0;entryY=0.5;entryDx=0;entryDy=0;exitX=1;exitY=0.5;exitDx=0;exitDy=0;" parent="1" source="CGPKFUjXN6ENeRpTmAmZ-5" target="CGPKFUjXN6ENeRpTmAmZ-11" edge="1">
          <mxGeometry width="50" height="50" relative="1" as="geometry">
            <mxPoint x="695" y="480" as="sourcePoint" />
            <mxPoint x="760" y="460" as="targetPoint" />
          </mxGeometry>
        </mxCell>
        <mxCell id="CGPKFUjXN6ENeRpTmAmZ-14" value="Deskripsi" style="ellipse;whiteSpace=wrap;html=1;" parent="1" vertex="1">
          <mxGeometry x="740" y="530" width="80" height="40" as="geometry" />
        </mxCell>
        <mxCell id="CGPKFUjXN6ENeRpTmAmZ-15" value="" style="endArrow=none;html=1;rounded=0;entryX=0;entryY=0;entryDx=0;entryDy=0;exitX=1;exitY=0.5;exitDx=0;exitDy=0;" parent="1" source="CGPKFUjXN6ENeRpTmAmZ-5" target="CGPKFUjXN6ENeRpTmAmZ-14" edge="1">
          <mxGeometry width="50" height="50" relative="1" as="geometry">
            <mxPoint x="695" y="480" as="sourcePoint" />
            <mxPoint x="765" y="510" as="targetPoint" />
          </mxGeometry>
        </mxCell>
        <mxCell id="CGPKFUjXN6ENeRpTmAmZ-16" value="Harga" style="ellipse;whiteSpace=wrap;html=1;" parent="1" vertex="1">
          <mxGeometry x="710" y="570" width="50" height="25" as="geometry" />
        </mxCell>
        <mxCell id="CGPKFUjXN6ENeRpTmAmZ-17" value="" style="endArrow=none;html=1;rounded=0;exitX=0.5;exitY=1;exitDx=0;exitDy=0;" parent="1" source="CGPKFUjXN6ENeRpTmAmZ-5" target="CGPKFUjXN6ENeRpTmAmZ-16" edge="1">
          <mxGeometry width="50" height="50" relative="1" as="geometry">
            <mxPoint x="695" y="480" as="sourcePoint" />
            <mxPoint x="762" y="546" as="targetPoint" />
          </mxGeometry>
        </mxCell>
        <mxCell id="CGPKFUjXN6ENeRpTmAmZ-18" value="Stok" style="ellipse;whiteSpace=wrap;html=1;" parent="1" vertex="1">
          <mxGeometry x="660" y="580" width="50" height="30" as="geometry" />
        </mxCell>
        <mxCell id="CGPKFUjXN6ENeRpTmAmZ-19" value="" style="endArrow=none;html=1;rounded=0;exitX=0.5;exitY=1;exitDx=0;exitDy=0;entryX=0.5;entryY=0;entryDx=0;entryDy=0;" parent="1" source="CGPKFUjXN6ENeRpTmAmZ-5" target="CGPKFUjXN6ENeRpTmAmZ-18" edge="1">
          <mxGeometry width="50" height="50" relative="1" as="geometry">
            <mxPoint x="635" y="510" as="sourcePoint" />
            <mxPoint x="691" y="562" as="targetPoint" />
          </mxGeometry>
        </mxCell>
        <mxCell id="CGPKFUjXN6ENeRpTmAmZ-20" value="Warna" style="ellipse;whiteSpace=wrap;html=1;" parent="1" vertex="1">
          <mxGeometry x="595" y="580" width="60" height="30" as="geometry" />
        </mxCell>
        <mxCell id="CGPKFUjXN6ENeRpTmAmZ-21" value="" style="endArrow=none;html=1;rounded=0;exitX=0.5;exitY=1;exitDx=0;exitDy=0;entryX=0.5;entryY=0;entryDx=0;entryDy=0;" parent="1" source="CGPKFUjXN6ENeRpTmAmZ-5" target="CGPKFUjXN6ENeRpTmAmZ-20" edge="1">
          <mxGeometry width="50" height="50" relative="1" as="geometry">
            <mxPoint x="635" y="510" as="sourcePoint" />
            <mxPoint x="650" y="560" as="targetPoint" />
          </mxGeometry>
        </mxCell>
        <mxCell id="CGPKFUjXN6ENeRpTmAmZ-22" value="Tanggal_upload" style="ellipse;whiteSpace=wrap;html=1;" parent="1" vertex="1">
          <mxGeometry x="500" y="570" width="90" height="40" as="geometry" />
        </mxCell>
        <mxCell id="CGPKFUjXN6ENeRpTmAmZ-23" value="" style="endArrow=none;html=1;rounded=0;exitX=0.5;exitY=1;exitDx=0;exitDy=0;" parent="1" source="CGPKFUjXN6ENeRpTmAmZ-5" target="CGPKFUjXN6ENeRpTmAmZ-22" edge="1">
          <mxGeometry width="50" height="50" relative="1" as="geometry">
            <mxPoint x="635" y="510" as="sourcePoint" />
            <mxPoint x="585" y="560" as="targetPoint" />
          </mxGeometry>
        </mxCell>
        <mxCell id="CGPKFUjXN6ENeRpTmAmZ-24" value="Type" style="ellipse;whiteSpace=wrap;html=1;" parent="1" vertex="1">
          <mxGeometry x="465" y="540" width="65" height="30" as="geometry" />
        </mxCell>
        <mxCell id="CGPKFUjXN6ENeRpTmAmZ-25" value="" style="endArrow=none;html=1;rounded=0;exitX=0.5;exitY=1;exitDx=0;exitDy=0;entryX=1;entryY=0;entryDx=0;entryDy=0;" parent="1" source="CGPKFUjXN6ENeRpTmAmZ-5" target="CGPKFUjXN6ENeRpTmAmZ-24" edge="1">
          <mxGeometry width="50" height="50" relative="1" as="geometry">
            <mxPoint x="635" y="510" as="sourcePoint" />
            <mxPoint x="572" y="581" as="targetPoint" />
          </mxGeometry>
        </mxCell>
        <mxCell id="CGPKFUjXN6ENeRpTmAmZ-46" value="Detail Pesanan" style="rounded=0;whiteSpace=wrap;html=1;" parent="1" vertex="1">
          <mxGeometry x="545" y="-70" width="120" height="60" as="geometry" />
        </mxCell>
        <mxCell id="CGPKFUjXN6ENeRpTmAmZ-47" value="id_detail" style="ellipse;whiteSpace=wrap;html=1;" parent="1" vertex="1">
          <mxGeometry x="465" y="-160" width="80" height="40" as="geometry" />
        </mxCell>
        <mxCell id="CGPKFUjXN6ENeRpTmAmZ-49" value="jumlah_beli" style="ellipse;whiteSpace=wrap;html=1;" parent="1" vertex="1">
          <mxGeometry x="555" y="-180" width="80" height="40" as="geometry" />
        </mxCell>
        <mxCell id="CGPKFUjXN6ENeRpTmAmZ-50" value="id_barang" style="ellipse;whiteSpace=wrap;html=1;" parent="1" vertex="1">
          <mxGeometry x="635" y="-170" width="80" height="40" as="geometry" />
        </mxCell>
        <mxCell id="CGPKFUjXN6ENeRpTmAmZ-53" value="" style="endArrow=none;html=1;rounded=0;entryX=0.5;entryY=1;entryDx=0;entryDy=0;exitX=0.5;exitY=0;exitDx=0;exitDy=0;" parent="1" source="CGPKFUjXN6ENeRpTmAmZ-46" target="CGPKFUjXN6ENeRpTmAmZ-47" edge="1">
          <mxGeometry width="50" height="50" relative="1" as="geometry">
            <mxPoint x="635" y="-60" as="sourcePoint" />
            <mxPoint x="715" y="-110" as="targetPoint" />
          </mxGeometry>
        </mxCell>
        <mxCell id="CGPKFUjXN6ENeRpTmAmZ-54" value="" style="endArrow=none;html=1;rounded=0;entryX=0.5;entryY=1;entryDx=0;entryDy=0;exitX=0.5;exitY=0;exitDx=0;exitDy=0;" parent="1" source="CGPKFUjXN6ENeRpTmAmZ-46" target="CGPKFUjXN6ENeRpTmAmZ-49" edge="1">
          <mxGeometry width="50" height="50" relative="1" as="geometry">
            <mxPoint x="645" y="-50" as="sourcePoint" />
            <mxPoint x="725" y="-100" as="targetPoint" />
          </mxGeometry>
        </mxCell>
        <mxCell id="CGPKFUjXN6ENeRpTmAmZ-55" value="" style="endArrow=none;html=1;rounded=0;entryX=0.4;entryY=1.036;entryDx=0;entryDy=0;exitX=0.5;exitY=0;exitDx=0;exitDy=0;entryPerimeter=0;" parent="1" source="CGPKFUjXN6ENeRpTmAmZ-46" target="CGPKFUjXN6ENeRpTmAmZ-50" edge="1">
          <mxGeometry width="50" height="50" relative="1" as="geometry">
            <mxPoint x="655" y="-40" as="sourcePoint" />
            <mxPoint x="735" y="-90" as="targetPoint" />
          </mxGeometry>
        </mxCell>
        <mxCell id="CGPKFUjXN6ENeRpTmAmZ-60" value="Admin(mungkin)" style="rounded=0;whiteSpace=wrap;html=1;" parent="1" vertex="1">
          <mxGeometry x="85" width="120" height="60" as="geometry" />
        </mxCell>
        <mxCell id="CGPKFUjXN6ENeRpTmAmZ-61" value="id_konfitmasi" style="ellipse;whiteSpace=wrap;html=1;" parent="1" vertex="1">
          <mxGeometry x="-65" y="50" width="80" height="40" as="geometry" />
        </mxCell>
        <mxCell id="CGPKFUjXN6ENeRpTmAmZ-62" value="" style="endArrow=none;html=1;rounded=0;entryX=0;entryY=0.5;entryDx=0;entryDy=0;exitX=1;exitY=0.5;exitDx=0;exitDy=0;" parent="1" source="CGPKFUjXN6ENeRpTmAmZ-61" target="CGPKFUjXN6ENeRpTmAmZ-60" edge="1">
          <mxGeometry width="50" height="50" relative="1" as="geometry">
            <mxPoint x="32" y="-175" as="sourcePoint" />
            <mxPoint x="95" y="-140" as="targetPoint" />
          </mxGeometry>
        </mxCell>
        <mxCell id="CGPKFUjXN6ENeRpTmAmZ-63" value="Nama" style="ellipse;whiteSpace=wrap;html=1;" parent="1" vertex="1">
          <mxGeometry x="-45" y="-60" width="70" height="40" as="geometry" />
        </mxCell>
        <mxCell id="CGPKFUjXN6ENeRpTmAmZ-64" value="Bank_tujuan" style="ellipse;whiteSpace=wrap;html=1;" parent="1" vertex="1">
          <mxGeometry x="160" y="-110" width="80" height="40" as="geometry" />
        </mxCell>
        <mxCell id="CGPKFUjXN6ENeRpTmAmZ-65" value="Gambar" style="ellipse;whiteSpace=wrap;html=1;" parent="1" vertex="1">
          <mxGeometry y="-100" width="70" height="40" as="geometry" />
        </mxCell>
        <mxCell id="CGPKFUjXN6ENeRpTmAmZ-66" value="No_rekening" style="ellipse;whiteSpace=wrap;html=1;" parent="1" vertex="1">
          <mxGeometry x="70" y="-110" width="80" height="40" as="geometry" />
        </mxCell>
        <mxCell id="CGPKFUjXN6ENeRpTmAmZ-67" value="id_pesanan" style="ellipse;whiteSpace=wrap;html=1;" parent="1" vertex="1">
          <mxGeometry x="-90" y="-10" width="100" height="50" as="geometry" />
        </mxCell>
        <mxCell id="CGPKFUjXN6ENeRpTmAmZ-68" value="" style="endArrow=none;html=1;rounded=0;exitX=0.5;exitY=1;exitDx=0;exitDy=0;entryX=0.5;entryY=0;entryDx=0;entryDy=0;" parent="1" source="CGPKFUjXN6ENeRpTmAmZ-64" target="CGPKFUjXN6ENeRpTmAmZ-60" edge="1">
          <mxGeometry width="50" height="50" relative="1" as="geometry">
            <mxPoint x="25" y="40" as="sourcePoint" />
            <mxPoint x="145" y="70" as="targetPoint" />
          </mxGeometry>
        </mxCell>
        <mxCell id="CGPKFUjXN6ENeRpTmAmZ-69" value="" style="endArrow=none;html=1;rounded=0;exitX=1;exitY=1;exitDx=0;exitDy=0;entryX=0;entryY=0.5;entryDx=0;entryDy=0;" parent="1" source="CGPKFUjXN6ENeRpTmAmZ-63" target="CGPKFUjXN6ENeRpTmAmZ-60" edge="1">
          <mxGeometry width="50" height="50" relative="1" as="geometry">
            <mxPoint x="35" y="50" as="sourcePoint" />
            <mxPoint x="80" y="30" as="targetPoint" />
          </mxGeometry>
        </mxCell>
        <mxCell id="CGPKFUjXN6ENeRpTmAmZ-70" value="" style="endArrow=none;html=1;rounded=0;entryX=0;entryY=0.5;entryDx=0;entryDy=0;exitX=1;exitY=0.5;exitDx=0;exitDy=0;" parent="1" source="CGPKFUjXN6ENeRpTmAmZ-67" target="CGPKFUjXN6ENeRpTmAmZ-60" edge="1">
          <mxGeometry width="50" height="50" relative="1" as="geometry">
            <mxPoint x="95" y="-36" as="sourcePoint" />
            <mxPoint x="125" y="10" as="targetPoint" />
          </mxGeometry>
        </mxCell>
        <mxCell id="CGPKFUjXN6ENeRpTmAmZ-71" value="" style="endArrow=none;html=1;rounded=0;entryX=0.5;entryY=0;entryDx=0;entryDy=0;exitX=1;exitY=1;exitDx=0;exitDy=0;" parent="1" source="CGPKFUjXN6ENeRpTmAmZ-65" target="CGPKFUjXN6ENeRpTmAmZ-60" edge="1">
          <mxGeometry width="50" height="50" relative="1" as="geometry">
            <mxPoint x="35" y="-15" as="sourcePoint" />
            <mxPoint x="95" y="25" as="targetPoint" />
          </mxGeometry>
        </mxCell>
        <mxCell id="CGPKFUjXN6ENeRpTmAmZ-72" value="" style="endArrow=none;html=1;rounded=0;entryX=0.5;entryY=0;entryDx=0;entryDy=0;exitX=0.635;exitY=1.008;exitDx=0;exitDy=0;exitPerimeter=0;" parent="1" source="CGPKFUjXN6ENeRpTmAmZ-66" target="CGPKFUjXN6ENeRpTmAmZ-60" edge="1">
          <mxGeometry width="50" height="50" relative="1" as="geometry">
            <mxPoint x="35" y="86" as="sourcePoint" />
            <mxPoint x="95" y="70" as="targetPoint" />
          </mxGeometry>
        </mxCell>
        <mxCell id="CGPKFUjXN6ENeRpTmAmZ-73" value="jumlah_transfer" style="ellipse;whiteSpace=wrap;html=1;" parent="1" vertex="1">
          <mxGeometry x="230" y="-80" width="95" height="40" as="geometry" />
        </mxCell>
        <mxCell id="CGPKFUjXN6ENeRpTmAmZ-74" value="" style="endArrow=none;html=1;rounded=0;exitX=0;exitY=1;exitDx=0;exitDy=0;entryX=0.5;entryY=0;entryDx=0;entryDy=0;" parent="1" source="CGPKFUjXN6ENeRpTmAmZ-73" target="CGPKFUjXN6ENeRpTmAmZ-60" edge="1">
          <mxGeometry width="50" height="50" relative="1" as="geometry">
            <mxPoint x="160" y="150" as="sourcePoint" />
            <mxPoint x="155" y="70" as="targetPoint" />
          </mxGeometry>
        </mxCell>
        <mxCell id="CGPKFUjXN6ENeRpTmAmZ-75" value="keterangan" style="ellipse;whiteSpace=wrap;html=1;" parent="1" vertex="1">
          <mxGeometry x="260" y="-40" width="70" height="40" as="geometry" />
        </mxCell>
        <mxCell id="CGPKFUjXN6ENeRpTmAmZ-76" value="" style="endArrow=none;html=1;rounded=0;exitX=0;exitY=0.5;exitDx=0;exitDy=0;entryX=0.5;entryY=0;entryDx=0;entryDy=0;" parent="1" source="CGPKFUjXN6ENeRpTmAmZ-75" target="CGPKFUjXN6ENeRpTmAmZ-60" edge="1">
          <mxGeometry width="50" height="50" relative="1" as="geometry">
            <mxPoint x="210" y="150" as="sourcePoint" />
            <mxPoint x="155" y="70" as="targetPoint" />
          </mxGeometry>
        </mxCell>
        <mxCell id="tgSQndXWRAumQTSyCi7y-1" value="Pemesanan" style="rhombus;whiteSpace=wrap;html=1;" vertex="1" parent="1">
          <mxGeometry x="105" y="150" width="80" height="80" as="geometry" />
        </mxCell>
        <mxCell id="tgSQndXWRAumQTSyCi7y-2" value="" style="endArrow=none;html=1;rounded=0;entryX=0;entryY=0.5;entryDx=0;entryDy=0;exitX=1;exitY=0.5;exitDx=0;exitDy=0;" edge="1" parent="1" source="tgSQndXWRAumQTSyCi7y-1" target="4zPybURJNScIZEpRafUK-2">
          <mxGeometry width="50" height="50" relative="1" as="geometry">
            <mxPoint x="260" y="210" as="sourcePoint" />
            <mxPoint x="310" y="160" as="targetPoint" />
          </mxGeometry>
        </mxCell>
        <mxCell id="tgSQndXWRAumQTSyCi7y-3" value="" style="endArrow=none;html=1;rounded=0;entryX=0.5;entryY=1;entryDx=0;entryDy=0;exitX=0.5;exitY=0;exitDx=0;exitDy=0;" edge="1" parent="1" source="4zPybURJNScIZEpRafUK-3" target="tgSQndXWRAumQTSyCi7y-1">
          <mxGeometry width="50" height="50" relative="1" as="geometry">
            <mxPoint x="155" y="170" as="sourcePoint" />
            <mxPoint x="155" y="70" as="targetPoint" />
          </mxGeometry>
        </mxCell>
        <mxCell id="tgSQndXWRAumQTSyCi7y-4" value="Id_pesanan" style="ellipse;whiteSpace=wrap;html=1;" vertex="1" parent="1">
          <mxGeometry x="675" y="50" width="80" height="40" as="geometry" />
        </mxCell>
        <mxCell id="tgSQndXWRAumQTSyCi7y-5" value="" style="endArrow=none;html=1;rounded=0;entryX=0;entryY=0.5;entryDx=0;entryDy=0;exitX=1;exitY=0.5;exitDx=0;exitDy=0;" edge="1" parent="1" target="tgSQndXWRAumQTSyCi7y-4" source="tgSQndXWRAumQTSyCi7y-6">
          <mxGeometry width="50" height="50" relative="1" as="geometry">
            <mxPoint x="665" y="190" as="sourcePoint" />
            <mxPoint x="505" y="230" as="targetPoint" />
          </mxGeometry>
        </mxCell>
        <mxCell id="tgSQndXWRAumQTSyCi7y-6" value="Validasi" style="rhombus;whiteSpace=wrap;html=1;" vertex="1" parent="1">
          <mxGeometry x="565" y="30" width="80" height="80" as="geometry" />
        </mxCell>
        <mxCell id="tgSQndXWRAumQTSyCi7y-7" value="" style="endArrow=none;html=1;rounded=0;entryX=0.5;entryY=0;entryDx=0;entryDy=0;exitX=0.5;exitY=1;exitDx=0;exitDy=0;" edge="1" parent="1" source="tgSQndXWRAumQTSyCi7y-6" target="4zPybURJNScIZEpRafUK-2">
          <mxGeometry width="50" height="50" relative="1" as="geometry">
            <mxPoint x="360" y="60" as="sourcePoint" />
            <mxPoint x="410" y="10" as="targetPoint" />
          </mxGeometry>
        </mxCell>
        <mxCell id="tgSQndXWRAumQTSyCi7y-8" value="" style="endArrow=none;html=1;rounded=0;entryX=0.5;entryY=0;entryDx=0;entryDy=0;exitX=0.5;exitY=1;exitDx=0;exitDy=0;" edge="1" parent="1" source="CGPKFUjXN6ENeRpTmAmZ-46" target="tgSQndXWRAumQTSyCi7y-6">
          <mxGeometry width="50" height="50" relative="1" as="geometry">
            <mxPoint x="615" y="120" as="sourcePoint" />
            <mxPoint x="615" y="170" as="targetPoint" />
          </mxGeometry>
        </mxCell>
      </root>
    </mxGraphModel>
  </diagram>
  <diagram id="TzO_BwNU29FcNPLSAgXV" name="Diagram Sequence">
    <mxGraphModel dx="1900" dy="489" grid="1" gridSize="10" guides="1" tooltips="1" connect="1" arrows="1" fold="1" page="1" pageScale="1" pageWidth="850" pageHeight="1100" math="0" shadow="0">
      <root>
        <mxCell id="0" />
        <mxCell id="1" parent="0" />
        <mxCell id="j_Z520GpZRDXHj4FX0Q_-3" value="User" style="shape=umlLifeline;perimeter=lifelinePerimeter;whiteSpace=wrap;html=1;container=0;dropTarget=0;collapsible=0;recursiveResize=0;outlineConnect=0;portConstraint=eastwest;newEdgeStyle={&quot;edgeStyle&quot;:&quot;elbowEdgeStyle&quot;,&quot;elbow&quot;:&quot;vertical&quot;,&quot;curved&quot;:0,&quot;rounded&quot;:0};" parent="1" vertex="1">
          <mxGeometry x="-610" y="100" width="100" height="1510" as="geometry" />
        </mxCell>
        <mxCell id="j_Z520GpZRDXHj4FX0Q_-4" value="" style="html=1;points=[];perimeter=orthogonalPerimeter;outlineConnect=0;targetShapes=umlLifeline;portConstraint=eastwest;newEdgeStyle={&quot;edgeStyle&quot;:&quot;elbowEdgeStyle&quot;,&quot;elbow&quot;:&quot;vertical&quot;,&quot;curved&quot;:0,&quot;rounded&quot;:0};" parent="j_Z520GpZRDXHj4FX0Q_-3" vertex="1">
          <mxGeometry x="45" y="70" width="10" height="100" as="geometry" />
        </mxCell>
        <mxCell id="j_Z520GpZRDXHj4FX0Q_-5" value="Mulai" style="html=1;verticalAlign=bottom;startArrow=oval;endArrow=block;startSize=8;edgeStyle=elbowEdgeStyle;elbow=vertical;curved=0;rounded=0;" parent="j_Z520GpZRDXHj4FX0Q_-3" target="j_Z520GpZRDXHj4FX0Q_-4" edge="1">
          <mxGeometry relative="1" as="geometry">
            <mxPoint x="-15" y="70" as="sourcePoint" />
            <mxPoint as="offset" />
          </mxGeometry>
        </mxCell>
        <mxCell id="j_Z520GpZRDXHj4FX0Q_-32" value="" style="html=1;points=[];perimeter=orthogonalPerimeter;outlineConnect=0;targetShapes=umlLifeline;portConstraint=eastwest;newEdgeStyle={&quot;edgeStyle&quot;:&quot;elbowEdgeStyle&quot;,&quot;elbow&quot;:&quot;vertical&quot;,&quot;curved&quot;:0,&quot;rounded&quot;:0};" parent="j_Z520GpZRDXHj4FX0Q_-3" vertex="1">
          <mxGeometry x="45" y="200" width="10" height="100" as="geometry" />
        </mxCell>
        <mxCell id="j_Z520GpZRDXHj4FX0Q_-87" value="" style="html=1;points=[];perimeter=orthogonalPerimeter;outlineConnect=0;targetShapes=umlLifeline;portConstraint=eastwest;newEdgeStyle={&quot;edgeStyle&quot;:&quot;elbowEdgeStyle&quot;,&quot;elbow&quot;:&quot;vertical&quot;,&quot;curved&quot;:0,&quot;rounded&quot;:0};" parent="j_Z520GpZRDXHj4FX0Q_-3" vertex="1">
          <mxGeometry x="45" y="470" width="10" height="100" as="geometry" />
        </mxCell>
        <mxCell id="j_Z520GpZRDXHj4FX0Q_-131" value="" style="html=1;points=[];perimeter=orthogonalPerimeter;outlineConnect=0;targetShapes=umlLifeline;portConstraint=eastwest;newEdgeStyle={&quot;edgeStyle&quot;:&quot;elbowEdgeStyle&quot;,&quot;elbow&quot;:&quot;vertical&quot;,&quot;curved&quot;:0,&quot;rounded&quot;:0};" parent="j_Z520GpZRDXHj4FX0Q_-3" vertex="1">
          <mxGeometry x="45" y="1310" width="10" height="70" as="geometry" />
        </mxCell>
        <mxCell id="j_Z520GpZRDXHj4FX0Q_-7" value="Admin" style="shape=umlLifeline;perimeter=lifelinePerimeter;whiteSpace=wrap;html=1;container=0;dropTarget=0;collapsible=0;recursiveResize=0;outlineConnect=0;portConstraint=eastwest;newEdgeStyle={&quot;edgeStyle&quot;:&quot;elbowEdgeStyle&quot;,&quot;elbow&quot;:&quot;vertical&quot;,&quot;curved&quot;:0,&quot;rounded&quot;:0};" parent="1" vertex="1">
          <mxGeometry x="-100" y="100" width="100" height="1530" as="geometry" />
        </mxCell>
        <mxCell id="j_Z520GpZRDXHj4FX0Q_-117" value="" style="html=1;points=[];perimeter=orthogonalPerimeter;outlineConnect=0;targetShapes=umlLifeline;portConstraint=eastwest;newEdgeStyle={&quot;edgeStyle&quot;:&quot;elbowEdgeStyle&quot;,&quot;elbow&quot;:&quot;vertical&quot;,&quot;curved&quot;:0,&quot;rounded&quot;:0};" parent="j_Z520GpZRDXHj4FX0Q_-7" vertex="1">
          <mxGeometry x="45" y="920.5" width="10" height="100" as="geometry" />
        </mxCell>
        <mxCell id="j_Z520GpZRDXHj4FX0Q_-120" value="" style="html=1;points=[];perimeter=orthogonalPerimeter;outlineConnect=0;targetShapes=umlLifeline;portConstraint=eastwest;newEdgeStyle={&quot;edgeStyle&quot;:&quot;elbowEdgeStyle&quot;,&quot;elbow&quot;:&quot;vertical&quot;,&quot;curved&quot;:0,&quot;rounded&quot;:0};" parent="j_Z520GpZRDXHj4FX0Q_-7" vertex="1">
          <mxGeometry x="45" y="1070" width="10" height="100" as="geometry" />
        </mxCell>
        <mxCell id="j_Z520GpZRDXHj4FX0Q_-9" value="Melakukan Register/login" style="html=1;verticalAlign=bottom;endArrow=block;edgeStyle=elbowEdgeStyle;elbow=vertical;curved=0;rounded=0;" parent="1" source="j_Z520GpZRDXHj4FX0Q_-4" target="j_Z520GpZRDXHj4FX0Q_-18" edge="1">
          <mxGeometry relative="1" as="geometry">
            <mxPoint x="-455" y="190" as="sourcePoint" />
            <Array as="points">
              <mxPoint x="-470" y="180" />
            </Array>
          </mxGeometry>
        </mxCell>
        <mxCell id="j_Z520GpZRDXHj4FX0Q_-10" value="Menampilkan halaman home" style="html=1;verticalAlign=bottom;endArrow=open;dashed=1;endSize=8;edgeStyle=elbowEdgeStyle;elbow=vertical;curved=0;rounded=0;" parent="1" edge="1">
          <mxGeometry x="-0.0043" relative="1" as="geometry">
            <mxPoint x="-560.5" y="260" as="targetPoint" />
            <Array as="points" />
            <mxPoint x="-330.5" y="260" as="sourcePoint" />
            <mxPoint x="1" as="offset" />
          </mxGeometry>
        </mxCell>
        <mxCell id="j_Z520GpZRDXHj4FX0Q_-17" value="Sistem" style="shape=umlLifeline;perimeter=lifelinePerimeter;whiteSpace=wrap;html=1;container=0;dropTarget=0;collapsible=0;recursiveResize=0;outlineConnect=0;portConstraint=eastwest;newEdgeStyle={&quot;edgeStyle&quot;:&quot;elbowEdgeStyle&quot;,&quot;elbow&quot;:&quot;vertical&quot;,&quot;curved&quot;:0,&quot;rounded&quot;:0};" parent="1" vertex="1">
          <mxGeometry x="-380" y="100" width="100" height="1510" as="geometry" />
        </mxCell>
        <mxCell id="j_Z520GpZRDXHj4FX0Q_-18" value="" style="html=1;points=[];perimeter=orthogonalPerimeter;outlineConnect=0;targetShapes=umlLifeline;portConstraint=eastwest;newEdgeStyle={&quot;edgeStyle&quot;:&quot;elbowEdgeStyle&quot;,&quot;elbow&quot;:&quot;vertical&quot;,&quot;curved&quot;:0,&quot;rounded&quot;:0};" parent="j_Z520GpZRDXHj4FX0Q_-17" vertex="1">
          <mxGeometry x="45" y="70" width="10" height="100" as="geometry" />
        </mxCell>
        <mxCell id="j_Z520GpZRDXHj4FX0Q_-23" value="" style="endArrow=classic;html=1;rounded=0;" parent="j_Z520GpZRDXHj4FX0Q_-17" source="j_Z520GpZRDXHj4FX0Q_-18" target="j_Z520GpZRDXHj4FX0Q_-18" edge="1">
          <mxGeometry width="50" height="50" relative="1" as="geometry">
            <mxPoint x="140" y="50" as="sourcePoint" />
            <mxPoint x="120" y="130" as="targetPoint" />
            <Array as="points">
              <mxPoint x="110" y="80" />
              <mxPoint x="110" y="140" />
            </Array>
          </mxGeometry>
        </mxCell>
        <mxCell id="j_Z520GpZRDXHj4FX0Q_-25" value="Mamvalidasi data user" style="edgeLabel;html=1;align=center;verticalAlign=middle;resizable=0;points=[];" parent="j_Z520GpZRDXHj4FX0Q_-23" vertex="1" connectable="0">
          <mxGeometry x="-0.0281" y="2" relative="1" as="geometry">
            <mxPoint as="offset" />
          </mxGeometry>
        </mxCell>
        <mxCell id="j_Z520GpZRDXHj4FX0Q_-34" value="" style="html=1;points=[];perimeter=orthogonalPerimeter;outlineConnect=0;targetShapes=umlLifeline;portConstraint=eastwest;newEdgeStyle={&quot;edgeStyle&quot;:&quot;elbowEdgeStyle&quot;,&quot;elbow&quot;:&quot;vertical&quot;,&quot;curved&quot;:0,&quot;rounded&quot;:0};" parent="j_Z520GpZRDXHj4FX0Q_-17" vertex="1">
          <mxGeometry x="45" y="200" width="10" height="100" as="geometry" />
        </mxCell>
        <mxCell id="j_Z520GpZRDXHj4FX0Q_-88" value="" style="html=1;points=[];perimeter=orthogonalPerimeter;outlineConnect=0;targetShapes=umlLifeline;portConstraint=eastwest;newEdgeStyle={&quot;edgeStyle&quot;:&quot;elbowEdgeStyle&quot;,&quot;elbow&quot;:&quot;vertical&quot;,&quot;curved&quot;:0,&quot;rounded&quot;:0};" parent="j_Z520GpZRDXHj4FX0Q_-17" vertex="1">
          <mxGeometry x="45" y="470.5" width="10" height="100" as="geometry" />
        </mxCell>
        <mxCell id="j_Z520GpZRDXHj4FX0Q_-89" value="" style="endArrow=classic;html=1;rounded=0;" parent="j_Z520GpZRDXHj4FX0Q_-17" edge="1">
          <mxGeometry width="50" height="50" relative="1" as="geometry">
            <mxPoint x="-180" y="470" as="sourcePoint" />
            <mxPoint x="45" y="470" as="targetPoint" />
            <Array as="points">
              <mxPoint x="-65" y="470" />
            </Array>
          </mxGeometry>
        </mxCell>
        <mxCell id="j_Z520GpZRDXHj4FX0Q_-90" value="menekan tombol lanjut transaksi" style="edgeLabel;html=1;align=center;verticalAlign=middle;resizable=0;points=[];" parent="j_Z520GpZRDXHj4FX0Q_-89" vertex="1" connectable="0">
          <mxGeometry x="-0.0913" y="-2" relative="1" as="geometry">
            <mxPoint x="18" y="-12" as="offset" />
          </mxGeometry>
        </mxCell>
        <mxCell id="j_Z520GpZRDXHj4FX0Q_-91" value="menampilkan halaman transaksi" style="html=1;verticalAlign=bottom;endArrow=open;dashed=1;endSize=8;edgeStyle=elbowEdgeStyle;elbow=horizontal;curved=0;rounded=0;" parent="j_Z520GpZRDXHj4FX0Q_-17" edge="1">
          <mxGeometry x="-0.0043" relative="1" as="geometry">
            <mxPoint x="-180" y="570.5" as="targetPoint" />
            <Array as="points" />
            <mxPoint x="50" y="570.5" as="sourcePoint" />
            <mxPoint x="1" as="offset" />
          </mxGeometry>
        </mxCell>
        <mxCell id="j_Z520GpZRDXHj4FX0Q_-93" value="" style="html=1;points=[];perimeter=orthogonalPerimeter;outlineConnect=0;targetShapes=umlLifeline;portConstraint=eastwest;newEdgeStyle={&quot;edgeStyle&quot;:&quot;elbowEdgeStyle&quot;,&quot;elbow&quot;:&quot;vertical&quot;,&quot;curved&quot;:0,&quot;rounded&quot;:0};" parent="j_Z520GpZRDXHj4FX0Q_-17" vertex="1">
          <mxGeometry x="-185" y="630.5" width="10" height="100" as="geometry" />
        </mxCell>
        <mxCell id="j_Z520GpZRDXHj4FX0Q_-94" value="" style="html=1;points=[];perimeter=orthogonalPerimeter;outlineConnect=0;targetShapes=umlLifeline;portConstraint=eastwest;newEdgeStyle={&quot;edgeStyle&quot;:&quot;elbowEdgeStyle&quot;,&quot;elbow&quot;:&quot;vertical&quot;,&quot;curved&quot;:0,&quot;rounded&quot;:0};" parent="j_Z520GpZRDXHj4FX0Q_-17" vertex="1">
          <mxGeometry x="45" y="630.5" width="10" height="100" as="geometry" />
        </mxCell>
        <mxCell id="j_Z520GpZRDXHj4FX0Q_-95" value="" style="endArrow=classic;html=1;rounded=0;" parent="j_Z520GpZRDXHj4FX0Q_-17" edge="1">
          <mxGeometry width="50" height="50" relative="1" as="geometry">
            <mxPoint x="-180" y="630" as="sourcePoint" />
            <mxPoint x="45" y="630" as="targetPoint" />
            <Array as="points">
              <mxPoint x="-65" y="630" />
            </Array>
          </mxGeometry>
        </mxCell>
        <mxCell id="j_Z520GpZRDXHj4FX0Q_-96" value="mengisi form dan menekan tombol bayar" style="edgeLabel;html=1;align=center;verticalAlign=middle;resizable=0;points=[];" parent="j_Z520GpZRDXHj4FX0Q_-95" vertex="1" connectable="0">
          <mxGeometry x="-0.0913" y="-2" relative="1" as="geometry">
            <mxPoint x="18" y="-12" as="offset" />
          </mxGeometry>
        </mxCell>
        <mxCell id="j_Z520GpZRDXHj4FX0Q_-97" value="menampilkan halaman pembayaran" style="html=1;verticalAlign=bottom;endArrow=open;dashed=1;endSize=8;edgeStyle=elbowEdgeStyle;elbow=horizontal;curved=0;rounded=0;" parent="j_Z520GpZRDXHj4FX0Q_-17" edge="1">
          <mxGeometry x="-0.0043" relative="1" as="geometry">
            <mxPoint x="-180" y="730.5" as="targetPoint" />
            <Array as="points" />
            <mxPoint x="50" y="730.5" as="sourcePoint" />
            <mxPoint x="1" as="offset" />
          </mxGeometry>
        </mxCell>
        <mxCell id="j_Z520GpZRDXHj4FX0Q_-98" value="" style="html=1;points=[];perimeter=orthogonalPerimeter;outlineConnect=0;targetShapes=umlLifeline;portConstraint=eastwest;newEdgeStyle={&quot;edgeStyle&quot;:&quot;elbowEdgeStyle&quot;,&quot;elbow&quot;:&quot;vertical&quot;,&quot;curved&quot;:0,&quot;rounded&quot;:0};" parent="j_Z520GpZRDXHj4FX0Q_-17" vertex="1">
          <mxGeometry x="-185" y="70" width="10" height="850" as="geometry" />
        </mxCell>
        <mxCell id="j_Z520GpZRDXHj4FX0Q_-99" value="" style="html=1;points=[];perimeter=orthogonalPerimeter;outlineConnect=0;targetShapes=umlLifeline;portConstraint=eastwest;newEdgeStyle={&quot;edgeStyle&quot;:&quot;elbowEdgeStyle&quot;,&quot;elbow&quot;:&quot;vertical&quot;,&quot;curved&quot;:0,&quot;rounded&quot;:0};" parent="j_Z520GpZRDXHj4FX0Q_-17" vertex="1">
          <mxGeometry x="45" y="770.5" width="10" height="100" as="geometry" />
        </mxCell>
        <mxCell id="j_Z520GpZRDXHj4FX0Q_-100" value="" style="endArrow=classic;html=1;rounded=0;" parent="j_Z520GpZRDXHj4FX0Q_-17" edge="1">
          <mxGeometry width="50" height="50" relative="1" as="geometry">
            <mxPoint x="-180" y="770" as="sourcePoint" />
            <mxPoint x="45" y="770" as="targetPoint" />
            <Array as="points">
              <mxPoint x="-65" y="770" />
            </Array>
          </mxGeometry>
        </mxCell>
        <mxCell id="j_Z520GpZRDXHj4FX0Q_-101" value="Menekan gambar produk yang dipilih" style="edgeLabel;html=1;align=center;verticalAlign=middle;resizable=0;points=[];" parent="j_Z520GpZRDXHj4FX0Q_-100" vertex="1" connectable="0">
          <mxGeometry x="-0.0913" y="-2" relative="1" as="geometry">
            <mxPoint x="18" y="-12" as="offset" />
          </mxGeometry>
        </mxCell>
        <mxCell id="j_Z520GpZRDXHj4FX0Q_-102" value="meanmpilkan halaman detail produk" style="html=1;verticalAlign=bottom;endArrow=open;dashed=1;endSize=8;edgeStyle=elbowEdgeStyle;elbow=vertical;curved=0;rounded=0;" parent="j_Z520GpZRDXHj4FX0Q_-17" edge="1">
          <mxGeometry x="-0.0043" relative="1" as="geometry">
            <mxPoint x="-180" y="870.5" as="targetPoint" />
            <Array as="points" />
            <mxPoint x="50" y="870.5" as="sourcePoint" />
            <mxPoint x="1" as="offset" />
          </mxGeometry>
        </mxCell>
        <mxCell id="j_Z520GpZRDXHj4FX0Q_-109" value="" style="html=1;points=[];perimeter=orthogonalPerimeter;outlineConnect=0;targetShapes=umlLifeline;portConstraint=eastwest;newEdgeStyle={&quot;edgeStyle&quot;:&quot;elbowEdgeStyle&quot;,&quot;elbow&quot;:&quot;vertical&quot;,&quot;curved&quot;:0,&quot;rounded&quot;:0};" parent="j_Z520GpZRDXHj4FX0Q_-17" vertex="1">
          <mxGeometry x="45" y="920.5" width="10" height="289.5" as="geometry" />
        </mxCell>
        <mxCell id="j_Z520GpZRDXHj4FX0Q_-110" value="" style="endArrow=classic;html=1;rounded=0;" parent="j_Z520GpZRDXHj4FX0Q_-17" edge="1">
          <mxGeometry width="50" height="50" relative="1" as="geometry">
            <mxPoint x="-180" y="920" as="sourcePoint" />
            <mxPoint x="45" y="920" as="targetPoint" />
            <Array as="points">
              <mxPoint x="-65" y="920" />
            </Array>
          </mxGeometry>
        </mxCell>
        <mxCell id="j_Z520GpZRDXHj4FX0Q_-111" value="&lt;div&gt;menampilkan halaman status&amp;nbsp;&lt;/div&gt;&lt;div&gt;pembayaran dan mengirim data&lt;/div&gt;&lt;div&gt;transaksi ke admin&lt;/div&gt;" style="edgeLabel;html=1;align=center;verticalAlign=middle;resizable=0;points=[];" parent="j_Z520GpZRDXHj4FX0Q_-110" vertex="1" connectable="0">
          <mxGeometry x="-0.0913" y="-2" relative="1" as="geometry">
            <mxPoint x="18" y="-1" as="offset" />
          </mxGeometry>
        </mxCell>
        <mxCell id="j_Z520GpZRDXHj4FX0Q_-33" value="" style="endArrow=classic;html=1;rounded=0;" parent="1" source="j_Z520GpZRDXHj4FX0Q_-32" target="j_Z520GpZRDXHj4FX0Q_-17" edge="1">
          <mxGeometry width="50" height="50" relative="1" as="geometry">
            <mxPoint x="-420" y="340" as="sourcePoint" />
            <mxPoint x="-400" y="310" as="targetPoint" />
            <Array as="points">
              <mxPoint x="-440" y="300" />
            </Array>
          </mxGeometry>
        </mxCell>
        <mxCell id="j_Z520GpZRDXHj4FX0Q_-36" value="Mengakses halaman produk" style="edgeLabel;html=1;align=center;verticalAlign=middle;resizable=0;points=[];" parent="j_Z520GpZRDXHj4FX0Q_-33" vertex="1" connectable="0">
          <mxGeometry x="-0.0913" y="-2" relative="1" as="geometry">
            <mxPoint x="3" y="-12" as="offset" />
          </mxGeometry>
        </mxCell>
        <mxCell id="j_Z520GpZRDXHj4FX0Q_-37" value="Menampilkan Halaman Produk" style="html=1;verticalAlign=bottom;endArrow=open;dashed=1;endSize=8;edgeStyle=elbowEdgeStyle;elbow=vertical;curved=0;rounded=0;" parent="1" edge="1">
          <mxGeometry x="-0.0043" relative="1" as="geometry">
            <mxPoint x="-550" y="400" as="targetPoint" />
            <Array as="points" />
            <mxPoint x="-330" y="400" as="sourcePoint" />
            <mxPoint x="1" as="offset" />
          </mxGeometry>
        </mxCell>
        <mxCell id="j_Z520GpZRDXHj4FX0Q_-63" value="" style="html=1;points=[];perimeter=orthogonalPerimeter;outlineConnect=0;targetShapes=umlLifeline;portConstraint=eastwest;newEdgeStyle={&quot;edgeStyle&quot;:&quot;elbowEdgeStyle&quot;,&quot;elbow&quot;:&quot;vertical&quot;,&quot;curved&quot;:0,&quot;rounded&quot;:0};" parent="1" vertex="1">
          <mxGeometry x="-335" y="430" width="10" height="100" as="geometry" />
        </mxCell>
        <mxCell id="j_Z520GpZRDXHj4FX0Q_-64" value="" style="endArrow=classic;html=1;rounded=0;" parent="1" edge="1">
          <mxGeometry width="50" height="50" relative="1" as="geometry">
            <mxPoint x="-550" y="430" as="sourcePoint" />
            <mxPoint x="-335" y="429.5" as="targetPoint" />
            <Array as="points">
              <mxPoint x="-445" y="429.5" />
            </Array>
          </mxGeometry>
        </mxCell>
        <mxCell id="j_Z520GpZRDXHj4FX0Q_-65" value="Menekan gambar produk yang dipilih" style="edgeLabel;html=1;align=center;verticalAlign=middle;resizable=0;points=[];" parent="j_Z520GpZRDXHj4FX0Q_-64" vertex="1" connectable="0">
          <mxGeometry x="-0.0913" y="-2" relative="1" as="geometry">
            <mxPoint x="18" y="-12" as="offset" />
          </mxGeometry>
        </mxCell>
        <mxCell id="j_Z520GpZRDXHj4FX0Q_-66" value="meanmpilkan halaman detail produk" style="html=1;verticalAlign=bottom;endArrow=open;dashed=1;endSize=8;edgeStyle=elbowEdgeStyle;elbow=horizontal;curved=0;rounded=0;" parent="1" edge="1">
          <mxGeometry x="-0.0043" relative="1" as="geometry">
            <mxPoint x="-560" y="530" as="targetPoint" />
            <Array as="points" />
            <mxPoint x="-330" y="530" as="sourcePoint" />
            <mxPoint x="1" as="offset" />
          </mxGeometry>
        </mxCell>
        <mxCell id="j_Z520GpZRDXHj4FX0Q_-116" value="" style="endArrow=classic;html=1;rounded=0;" parent="1" source="j_Z520GpZRDXHj4FX0Q_-17" target="j_Z520GpZRDXHj4FX0Q_-7" edge="1">
          <mxGeometry width="50" height="50" relative="1" as="geometry">
            <mxPoint x="-260" y="1020" as="sourcePoint" />
            <mxPoint x="-210" y="970" as="targetPoint" />
            <Array as="points">
              <mxPoint x="-210" y="1020" />
            </Array>
          </mxGeometry>
        </mxCell>
        <mxCell id="j_Z520GpZRDXHj4FX0Q_-118" value="Login Admin" style="edgeLabel;html=1;align=center;verticalAlign=middle;resizable=0;points=[];" parent="j_Z520GpZRDXHj4FX0Q_-116" vertex="1" connectable="0">
          <mxGeometry x="0.0428" y="2" relative="1" as="geometry">
            <mxPoint x="-5" y="-8" as="offset" />
          </mxGeometry>
        </mxCell>
        <mxCell id="j_Z520GpZRDXHj4FX0Q_-119" value="&lt;div&gt;Memvalidisai data admin&amp;nbsp;&lt;/div&gt;&lt;div&gt;dan menampilkan halaman produk&lt;/div&gt;" style="html=1;verticalAlign=bottom;endArrow=open;dashed=1;endSize=8;edgeStyle=elbowEdgeStyle;elbow=vertical;curved=0;rounded=0;" parent="1" target="j_Z520GpZRDXHj4FX0Q_-17" edge="1">
          <mxGeometry x="-0.0043" relative="1" as="geometry">
            <mxPoint x="-320" y="1120" as="targetPoint" />
            <Array as="points" />
            <mxPoint x="-50" y="1120" as="sourcePoint" />
            <mxPoint x="1" as="offset" />
          </mxGeometry>
        </mxCell>
        <mxCell id="j_Z520GpZRDXHj4FX0Q_-121" value="" style="endArrow=classic;html=1;rounded=0;" parent="1" edge="1">
          <mxGeometry width="50" height="50" relative="1" as="geometry">
            <mxPoint x="-330" y="1310" as="sourcePoint" />
            <mxPoint x="-55" y="1310" as="targetPoint" />
            <Array as="points">
              <mxPoint x="-215" y="1310" />
            </Array>
          </mxGeometry>
        </mxCell>
        <mxCell id="j_Z520GpZRDXHj4FX0Q_-122" value="&lt;div&gt;melihat data transakasi penjualan &lt;br&gt;&lt;/div&gt;&lt;div&gt;laba memproses data&lt;/div&gt;&lt;div&gt;transaksi user determinal dtilolak&lt;br&gt;&lt;/div&gt;" style="edgeLabel;html=1;align=center;verticalAlign=middle;resizable=0;points=[];" parent="j_Z520GpZRDXHj4FX0Q_-121" vertex="1" connectable="0">
          <mxGeometry x="0.0428" y="2" relative="1" as="geometry">
            <mxPoint x="-5" y="2" as="offset" />
          </mxGeometry>
        </mxCell>
        <mxCell id="j_Z520GpZRDXHj4FX0Q_-123" value="Menampilkan halaman transaksi admin" style="html=1;verticalAlign=bottom;endArrow=open;dashed=1;endSize=8;edgeStyle=elbowEdgeStyle;elbow=vertical;curved=0;rounded=0;" parent="1" target="j_Z520GpZRDXHj4FX0Q_-109" edge="1">
          <mxGeometry x="-0.0043" relative="1" as="geometry">
            <mxPoint x="-320" y="1270" as="targetPoint" />
            <Array as="points" />
            <mxPoint x="-54" y="1270.43" as="sourcePoint" />
            <mxPoint x="1" as="offset" />
          </mxGeometry>
        </mxCell>
        <mxCell id="j_Z520GpZRDXHj4FX0Q_-126" value="" style="html=1;points=[];perimeter=orthogonalPerimeter;outlineConnect=0;targetShapes=umlLifeline;portConstraint=eastwest;newEdgeStyle={&quot;edgeStyle&quot;:&quot;elbowEdgeStyle&quot;,&quot;elbow&quot;:&quot;vertical&quot;,&quot;curved&quot;:0,&quot;rounded&quot;:0};" parent="1" vertex="1">
          <mxGeometry x="-55" y="1310" width="10" height="100" as="geometry" />
        </mxCell>
        <mxCell id="j_Z520GpZRDXHj4FX0Q_-128" value="&lt;div&gt;data transaksi user diterima&lt;/div&gt;&lt;div&gt;ditolak maka menampilkan data transaksi pada&lt;/div&gt;&lt;div&gt;halaman history user&lt;br&gt;&lt;/div&gt;" style="html=1;verticalAlign=bottom;endArrow=open;dashed=1;endSize=8;edgeStyle=elbowEdgeStyle;elbow=vertical;curved=0;rounded=0;" parent="1" target="j_Z520GpZRDXHj4FX0Q_-3" edge="1">
          <mxGeometry x="0.0058" y="19" relative="1" as="geometry">
            <mxPoint x="-325" y="1411" as="targetPoint" />
            <Array as="points" />
            <mxPoint x="-54" y="1410.43" as="sourcePoint" />
            <mxPoint as="offset" />
          </mxGeometry>
        </mxCell>
        <mxCell id="j_Z520GpZRDXHj4FX0Q_-129" value="" style="endArrow=classic;html=1;rounded=0;" parent="1" source="j_Z520GpZRDXHj4FX0Q_-109" edge="1">
          <mxGeometry width="50" height="50" relative="1" as="geometry">
            <mxPoint x="-320" y="1170" as="sourcePoint" />
            <mxPoint x="-55" y="1170" as="targetPoint" />
            <Array as="points">
              <mxPoint x="-214" y="1170" />
            </Array>
          </mxGeometry>
        </mxCell>
        <mxCell id="j_Z520GpZRDXHj4FX0Q_-130" value="Mengakses halaman transaksi admin" style="edgeLabel;html=1;align=center;verticalAlign=middle;resizable=0;points=[];" parent="j_Z520GpZRDXHj4FX0Q_-129" vertex="1" connectable="0">
          <mxGeometry x="0.0428" y="2" relative="1" as="geometry">
            <mxPoint x="-5" y="-8" as="offset" />
          </mxGeometry>
        </mxCell>
        <mxCell id="j_Z520GpZRDXHj4FX0Q_-133" value="" style="shape=waypoint;sketch=0;fillStyle=solid;size=6;pointerEvents=1;points=[];fillColor=none;resizable=0;rotatable=0;perimeter=centerPerimeter;snapToPoint=1;" parent="1" vertex="1">
          <mxGeometry x="-650" y="1470" width="20" height="20" as="geometry" />
        </mxCell>
        <mxCell id="j_Z520GpZRDXHj4FX0Q_-136" value="" style="endArrow=none;dashed=1;html=1;rounded=0;exitX=0.875;exitY=0.675;exitDx=0;exitDy=0;exitPerimeter=0;" parent="1" source="j_Z520GpZRDXHj4FX0Q_-133" target="j_Z520GpZRDXHj4FX0Q_-131" edge="1">
          <mxGeometry width="50" height="50" relative="1" as="geometry">
            <mxPoint x="-390" y="1530" as="sourcePoint" />
            <mxPoint x="-340" y="1480" as="targetPoint" />
          </mxGeometry>
        </mxCell>
        <mxCell id="j_Z520GpZRDXHj4FX0Q_-137" value="Selesai" style="edgeLabel;html=1;align=center;verticalAlign=middle;resizable=0;points=[];" parent="j_Z520GpZRDXHj4FX0Q_-136" vertex="1" connectable="0">
          <mxGeometry x="0.2667" relative="1" as="geometry">
            <mxPoint x="-7" y="-10" as="offset" />
          </mxGeometry>
        </mxCell>
      </root>
    </mxGraphModel>
  </diagram>
</mxfile>
